<?xml version="1.0" encoding="UTF-8" standalone="no"?>
<!-- Generator: Adobe Illustrator 15.1.0, SVG Export Plug-In  -->

<svg
   xmlns:dc="http://purl.org/dc/elements/1.1/"
   xmlns:cc="http://creativecommons.org/ns#"
   xmlns:rdf="http://www.w3.org/1999/02/22-rdf-syntax-ns#"
   xmlns:svg="http://www.w3.org/2000/svg"
   xmlns="http://www.w3.org/2000/svg"
   xmlns:sodipodi="http://sodipodi.sourceforge.net/DTD/sodipodi-0.dtd"
   xmlns:inkscape="http://www.inkscape.org/namespaces/inkscape"
   version="1.1"
   x="0px"
   y="0px"
   width="320px"
   height="80px"
   viewBox="0 -0.34 320 80"
   enable-background="new 0 -0.34 320 80"
   xml:space="preserve"
   id="svg2"
   inkscape:version="0.48.1 "
   sodipodi:docname="footer-logo.svg"><metadata
   id="metadata102"><rdf:RDF><cc:Work
       rdf:about=""><dc:format>image/svg+xml</dc:format><dc:type
         rdf:resource="http://purl.org/dc/dcmitype/StillImage" /></cc:Work></rdf:RDF></metadata><sodipodi:namedview
   pagecolor="#ffffff"
   bordercolor="#666666"
   borderopacity="1"
   objecttolerance="10"
   gridtolerance="10"
   guidetolerance="10"
   inkscape:pageopacity="0"
   inkscape:pageshadow="2"
   inkscape:window-width="640"
   inkscape:window-height="480"
   id="namedview100"
   showgrid="false"
   inkscape:zoom="1.5"
   inkscape:cx="160"
   inkscape:cy="40"
   inkscape:window-x="0"
   inkscape:window-y="0"
   inkscape:window-maximized="0"
   inkscape:current-layer="svg2" />
<defs
   id="defs4">
</defs>
<path
   fill="#00FF00"
   stroke="#000000"
   stroke-miterlimit="10"
   d="M79.426,0.5v29.882h-1.234  C75.054,18.059,66.145,8.043,54.524,3.372V0.5H79.426z"
   id="path6" />
<path
   d="M54.524,40.343H39.931v14.692c-0.071,0.005-0.143,0.005-0.215,0.005c-8.179,0-14.814-6.628-14.814-14.808  s6.636-14.814,14.814-14.814c4.398,0,8.345,1.921,11.057,4.964h3.752V3.372c-4.577-1.843-9.573-2.855-14.809-2.855  C17.779,0.517,0,18.297,0,40.232c0,21.93,17.779,39.709,39.716,39.709h0.215c5.158-0.026,10.078-1.035,14.594-2.854v3.099h24.901  V55.284V40.343H54.524z"
   id="path8" />
















<path
   d="m 95.49,29.527 v -6.359 h 1.318 c 0.951,0 1.641,0.076 2.07,0.229 0.617,0.216 1.1,0.591 1.446,1.124 0.346,0.533 0.521,1.168 0.521,1.906 0,0.637 -0.137,1.197 -0.412,1.682 -0.275,0.485 -0.633,0.842 -1.072,1.072 -0.439,0.23 -1.056,0.346 -1.848,0.346 H 95.49 z m 0.61,-0.6 h 0.734 c 0.879,0 1.488,-0.055 1.829,-0.164 0.478,-0.156 0.854,-0.436 1.128,-0.841 0.273,-0.404 0.411,-0.899 0.411,-1.483 0,-0.613 -0.148,-1.138 -0.445,-1.572 C 99.46,24.433 99.047,24.134 98.516,23.972 98.119,23.851 97.463,23.79 96.549,23.79 H 96.1 v 5.137 z"
   id="path42"
   inkscape:connector-curvature="0" />
<path
   d="m 102.613,23.168 h 3.645 v 0.622 h -3.009 v 1.993 h 2.983 v 0.623 h -2.983 v 2.499 h 2.983 v 0.622 h -3.619 v -6.359 z"
   id="path44"
   inkscape:connector-curvature="0" />
<path
   d="m 107.23,28.343 0.541,-0.324 c 0.38,0.7 0.819,1.051 1.318,1.051 0.213,0 0.413,-0.05 0.601,-0.149 0.188,-0.099 0.33,-0.232 0.429,-0.399 0.098,-0.168 0.146,-0.345 0.146,-0.532 0,-0.213 -0.072,-0.422 -0.217,-0.627 -0.198,-0.282 -0.562,-0.622 -1.089,-1.021 -0.53,-0.4 -0.86,-0.689 -0.99,-0.869 -0.225,-0.299 -0.337,-0.623 -0.337,-0.973 0,-0.276 0.066,-0.528 0.199,-0.756 0.132,-0.228 0.318,-0.407 0.559,-0.538 0.241,-0.132 0.503,-0.197 0.785,-0.197 0.3,0 0.58,0.074 0.841,0.223 0.261,0.149 0.537,0.422 0.828,0.819 l -0.519,0.394 c -0.24,-0.317 -0.443,-0.526 -0.611,-0.627 -0.17,-0.101 -0.354,-0.151 -0.552,-0.151 -0.257,0 -0.466,0.078 -0.629,0.233 -0.163,0.155 -0.245,0.348 -0.245,0.575 0,0.139 0.029,0.272 0.087,0.402 0.058,0.129 0.163,0.271 0.315,0.423 0.084,0.081 0.357,0.293 0.822,0.636 0.55,0.406 0.928,0.769 1.133,1.085 0.204,0.317 0.307,0.636 0.307,0.956 0,0.461 -0.176,0.861 -0.525,1.201 -0.351,0.341 -0.776,0.511 -1.277,0.511 -0.387,0 -0.736,-0.104 -1.051,-0.31 -0.315,-0.206 -0.603,-0.552 -0.869,-1.036 z"
   id="path46"
   inkscape:connector-curvature="0" />
<path
   d="m 112.833,23.168 h 3.645 v 0.622 h -3.009 v 1.993 h 2.982 v 0.623 h -2.982 v 2.499 h 2.982 v 0.622 h -3.618 v -6.359 z"
   id="path48"
   inkscape:connector-curvature="0" />
<path
   d="m 118.111,29.527 v -6.359 h 0.138 l 4.232,4.875 v -4.875 h 0.627 v 6.359 h -0.143 l -4.198,-4.815 v 4.815 h -0.656 z"
   id="path50"
   inkscape:connector-curvature="0" />
<path
   d="m 124.703,23.168 h 0.691 l 2.107,4.913 2.143,-4.913 h 0.691 l -2.767,6.359 h -0.138 l -2.727,-6.359 z"
   id="path52"
   inkscape:connector-curvature="0" />
<path
   d="m 134.964,23.008 c 0.964,0 1.77,0.321 2.418,0.964 0.649,0.643 0.974,1.435 0.974,2.374 0,0.931 -0.324,1.721 -0.971,2.369 -0.648,0.648 -1.438,0.973 -2.369,0.973 -0.943,0 -1.738,-0.323 -2.388,-0.969 -0.65,-0.646 -0.974,-1.427 -0.974,-2.343 0,-0.611 0.148,-1.178 0.443,-1.699 0.296,-0.521 0.699,-0.931 1.209,-1.226 0.511,-0.296 1.063,-0.443 1.658,-0.443 z m 0.028,0.618 c -0.471,0 -0.917,0.123 -1.338,0.368 -0.422,0.245 -0.751,0.575 -0.988,0.99 -0.236,0.416 -0.354,0.879 -0.354,1.39 0,0.755 0.263,1.394 0.786,1.914 0.523,0.52 1.155,0.781 1.895,0.781 0.493,0 0.95,-0.12 1.37,-0.359 0.421,-0.239 0.747,-0.566 0.983,-0.982 0.234,-0.415 0.353,-0.877 0.353,-1.384 0,-0.505 -0.118,-0.962 -0.353,-1.37 -0.236,-0.408 -0.566,-0.734 -0.994,-0.979 -0.428,-0.245 -0.881,-0.369 -1.36,-0.369 z"
   id="path54"
   inkscape:connector-curvature="0" />
<path
   d="m 140.162,23.168 h 0.635 v 5.745 h 2.447 v 0.614 h -3.082 v -6.359 z"
   id="path56"
   inkscape:connector-curvature="0" />
<path
   d="m 144.299,23.168 h 0.691 l 2.107,4.913 2.143,-4.913 h 0.691 l -2.767,6.359 h -0.138 l -2.727,-6.359 z"
   id="path58"
   inkscape:connector-curvature="0" />
<path
   d="m 151.535,23.168 h 3.645 v 0.622 h -3.009 v 1.993 h 2.983 v 0.623 h -2.983 v 2.499 h 2.983 v 0.622 h -3.619 v -6.359 z"
   id="path60"
   inkscape:connector-curvature="0" />
<path
   d="m 156.809,29.527 v -6.359 h 1.318 c 0.951,0 1.643,0.076 2.071,0.229 0.616,0.216 1.099,0.591 1.446,1.124 0.347,0.533 0.521,1.168 0.521,1.906 0,0.637 -0.139,1.197 -0.414,1.682 -0.274,0.484 -0.632,0.842 -1.071,1.072 -0.44,0.23 -1.056,0.346 -1.849,0.346 h -2.022 z m 0.609,-0.6 h 0.735 c 0.88,0 1.489,-0.055 1.829,-0.164 0.479,-0.156 0.854,-0.436 1.129,-0.841 0.273,-0.404 0.41,-0.899 0.41,-1.483 0,-0.613 -0.148,-1.138 -0.445,-1.572 -0.297,-0.434 -0.711,-0.733 -1.24,-0.895 -0.398,-0.121 -1.055,-0.182 -1.968,-0.182 h -0.45 v 5.137 z"
   id="path62"
   inkscape:connector-curvature="0" />
<path
   d="m 166.957,23.008 c 0.964,0 1.77,0.321 2.418,0.964 0.649,0.643 0.975,1.435 0.975,2.374 0,0.931 -0.324,1.721 -0.972,2.369 -0.648,0.648 -1.437,0.973 -2.368,0.973 -0.943,0 -1.739,-0.323 -2.389,-0.969 -0.648,-0.646 -0.973,-1.427 -0.973,-2.343 0,-0.611 0.147,-1.178 0.443,-1.699 0.295,-0.521 0.698,-0.931 1.209,-1.226 0.511,-0.296 1.063,-0.443 1.657,-0.443 z m 0.029,0.618 c -0.471,0 -0.918,0.123 -1.339,0.368 -0.421,0.245 -0.751,0.575 -0.987,0.99 -0.236,0.416 -0.355,0.879 -0.355,1.39 0,0.755 0.263,1.394 0.787,1.914 0.523,0.521 1.154,0.781 1.895,0.781 0.492,0 0.949,-0.12 1.369,-0.359 0.421,-0.239 0.748,-0.566 0.983,-0.982 0.235,-0.415 0.353,-0.877 0.353,-1.384 0,-0.505 -0.117,-0.962 -0.353,-1.37 -0.236,-0.408 -0.566,-0.734 -0.993,-0.979 -0.428,-0.246 -0.881,-0.369 -1.36,-0.369 z"
   id="path64"
   inkscape:connector-curvature="0" />
<path
   d="m 172.19,23.168 h 1.267 c 0.706,0 1.185,0.029 1.436,0.087 0.377,0.086 0.684,0.271 0.92,0.556 0.236,0.285 0.355,0.635 0.355,1.05 0,0.347 -0.082,0.65 -0.244,0.913 -0.163,0.263 -0.396,0.461 -0.699,0.596 -0.303,0.134 -0.721,0.202 -1.253,0.205 l 2.286,2.953 h -0.785 l -2.287,-2.953 h -0.359 v 2.953 h -0.636 v -6.36 z m 0.636,0.622 v 2.162 l 1.096,0.009 c 0.424,0 0.738,-0.04 0.941,-0.121 0.203,-0.081 0.362,-0.21 0.477,-0.387 0.113,-0.178 0.171,-0.376 0.171,-0.595 0,-0.214 -0.058,-0.407 -0.173,-0.582 -0.116,-0.174 -0.268,-0.299 -0.455,-0.374 -0.188,-0.074 -0.5,-0.112 -0.936,-0.112 h -1.121 z"
   id="path66"
   inkscape:connector-curvature="0" />
<path
   d="m 180.684,23.168 h 0.653 l 1.3,4.583 1.822,-4.583 h 0.132 l 1.802,4.583 1.322,-4.583 h 0.647 l -1.827,6.359 h -0.119 l -1.887,-4.812 -1.924,4.812 h -0.119 l -1.802,-6.359 z"
   id="path68"
   inkscape:connector-curvature="0" />
<path
   d="m 190.078,23.168 h 3.645 v 0.622 h -3.01 v 1.993 h 2.983 v 0.623 h -2.983 v 2.499 h 2.983 v 0.622 h -3.618 v -6.359 z"
   id="path70"
   inkscape:connector-curvature="0" />
<path
   d="m 195.369,23.168 h 1.254 c 0.504,0 0.893,0.06 1.163,0.18 0.271,0.119 0.485,0.303 0.642,0.551 0.157,0.248 0.236,0.523 0.236,0.826 0,0.282 -0.069,0.539 -0.207,0.771 -0.138,0.231 -0.34,0.42 -0.606,0.564 0.331,0.112 0.585,0.244 0.763,0.396 0.178,0.152 0.316,0.334 0.416,0.549 0.1,0.215 0.148,0.447 0.148,0.698 0,0.51 -0.187,0.941 -0.56,1.295 -0.373,0.353 -0.874,0.529 -1.503,0.529 h -1.746 v -6.359 z m 0.623,0.622 v 2.037 h 0.363 c 0.442,0 0.768,-0.042 0.975,-0.124 0.209,-0.082 0.373,-0.212 0.494,-0.389 0.121,-0.178 0.182,-0.374 0.182,-0.59 0,-0.291 -0.102,-0.52 -0.305,-0.686 -0.203,-0.166 -0.527,-0.249 -0.973,-0.249 h -0.736 z m 0,2.677 v 2.438 h 0.787 c 0.465,0 0.807,-0.046 1.023,-0.137 0.216,-0.091 0.39,-0.232 0.521,-0.426 0.131,-0.193 0.197,-0.402 0.197,-0.627 0,-0.282 -0.093,-0.528 -0.277,-0.739 -0.186,-0.21 -0.439,-0.354 -0.762,-0.433 -0.217,-0.052 -0.594,-0.077 -1.131,-0.077 h -0.358 z"
   id="path72"
   inkscape:connector-curvature="0" />
<path
   d="M114.554,39.591l-1.54,1.459c-1.108-1.09-2.321-1.916-3.641-2.479c-1.32-0.563-2.605-0.844-3.857-0.844  c-1.558,0-3.042,0.383-4.452,1.148s-2.501,1.803-3.276,3.113c-0.775,1.311-1.162,2.695-1.162,4.154c0,1.496,0.401,2.916,1.203,4.263  c0.801,1.347,1.909,2.405,3.323,3.175c1.414,0.771,2.963,1.155,4.647,1.155c2.044,0,3.774-0.576,5.188-1.729  c1.414-1.152,2.251-2.647,2.513-4.485h-6.336v-1.918h8.565c-0.019,3.071-0.93,5.51-2.736,7.315  c-1.806,1.806-4.222,2.709-7.248,2.709c-3.675,0-6.584-1.252-8.728-3.756c-1.648-1.928-2.473-4.156-2.473-6.688  c0-1.883,0.473-3.634,1.418-5.256c0.946-1.621,2.243-2.889,3.891-3.803s3.513-1.371,5.593-1.371c1.684,0,3.27,0.304,4.755,0.912  C111.69,37.273,113.14,38.249,114.554,39.591z"
   id="path74" />
<path
   d="M120.687,35.375c0.431,0,0.798,0.153,1.103,0.46s0.458,0.676,0.458,1.107c0,0.424-0.153,0.788-0.458,1.095  s-0.672,0.459-1.103,0.459c-0.421,0-0.785-0.152-1.089-0.459c-0.305-0.307-0.458-0.671-0.458-1.095c0-0.432,0.152-0.801,0.458-1.107  C119.902,35.528,120.266,35.375,120.687,35.375z M119.748,41.428h1.892v14.699h-1.892V41.428z"
   id="path76" />
<path
   d="M126.117,35.754h1.892v20.373h-1.892V35.754z"
   id="path78" />
<path
   d="M132.757,41.428h1.891v2.54c0.658-0.937,1.334-1.621,2.029-2.054c0.956-0.576,1.961-0.864,3.017-0.864  c0.712,0,1.388,0.14,2.028,0.419c0.641,0.279,1.164,0.65,1.569,1.114s0.757,1.128,1.055,1.993c0.628-1.153,1.415-2.029,2.358-2.628  c0.943-0.599,1.959-0.898,3.046-0.898c1.016,0,1.912,0.257,2.689,0.77c0.777,0.514,1.354,1.229,1.732,2.148s0.566,2.297,0.566,4.134  v8.025h-1.932v-8.025c0-1.575-0.112-2.659-0.337-3.249c-0.224-0.59-0.608-1.064-1.151-1.425c-0.543-0.36-1.191-0.541-1.945-0.541  c-0.916,0-1.753,0.271-2.512,0.811c-0.758,0.541-1.313,1.262-1.663,2.162c-0.35,0.9-0.525,2.404-0.525,4.513v5.755h-1.891v-7.525  c0-1.774-0.11-2.979-0.331-3.613c-0.221-0.636-0.606-1.145-1.155-1.527s-1.202-0.574-1.959-0.574c-0.874,0-1.691,0.264-2.452,0.791  c-0.761,0.526-1.324,1.236-1.688,2.128s-0.547,2.256-0.547,4.093v6.229h-1.891V41.428z"
   id="path80" />
<path
   d="M174.198,41.428v14.699h-1.864v-2.526c-0.793,0.964-1.682,1.688-2.668,2.175s-2.065,0.729-3.236,0.729  c-2.08,0-3.857-0.754-5.33-2.263c-1.472-1.509-2.208-3.344-2.208-5.505c0-2.117,0.743-3.927,2.229-5.432  c1.485-1.504,3.273-2.256,5.363-2.256c1.207,0,2.299,0.257,3.275,0.77c0.978,0.514,1.836,1.284,2.574,2.311v-2.702H174.198z   M166.639,42.874c-1.052,0-2.023,0.259-2.914,0.775c-0.891,0.518-1.6,1.244-2.125,2.18c-0.527,0.936-0.79,1.925-0.79,2.969  c0,1.035,0.266,2.024,0.796,2.969c0.531,0.944,1.244,1.68,2.139,2.206c0.896,0.526,1.855,0.79,2.882,0.79  c1.034,0,2.015-0.261,2.942-0.783c0.926-0.521,1.639-1.228,2.139-2.118c0.498-0.891,0.748-1.894,0.748-3.01  c0-1.7-0.56-3.121-1.68-4.264S168.277,42.874,166.639,42.874z"
   id="path82" />
<path
   d="M178.568,41.428h1.932v2.148c0.576-0.847,1.184-1.479,1.824-1.898c0.639-0.419,1.305-0.628,1.999-0.628  c0.522,0,1.081,0.167,1.675,0.5l-0.986,1.594c-0.396-0.171-0.729-0.257-1-0.257c-0.63,0-1.238,0.26-1.823,0.777  s-1.031,1.321-1.337,2.411c-0.234,0.838-0.352,2.531-0.352,5.08v4.972h-1.932V41.428z"
   id="path84" />
<path
   d="M205.357,36.254l9.268,19.873h-2.146l-3.126-6.539h-8.561l-3.097,6.539h-2.216l9.39-19.873H205.357z M205.105,40.476  l-3.404,7.194h6.793L205.105,40.476z"
   id="path86" />
<path
   d="M218.225,41.428h1.891v2.635c0.757-1.009,1.595-1.763,2.514-2.263c0.918-0.5,1.918-0.75,2.999-0.75  c1.099,0,2.073,0.279,2.925,0.838s1.479,1.311,1.885,2.256s0.607,2.418,0.607,4.418v7.565h-1.891v-7.012  c0-1.693-0.07-2.823-0.211-3.391c-0.219-0.973-0.64-1.705-1.261-2.195c-0.622-0.491-1.433-0.736-2.433-0.736  c-1.144,0-2.168,0.378-3.074,1.135c-0.904,0.756-1.502,1.693-1.79,2.81c-0.181,0.729-0.271,2.063-0.271,3.999v5.391h-1.891V41.428z"
   id="path88" />
<path
   d="M250.6,35.754v20.373h-1.863v-2.526c-0.793,0.964-1.683,1.688-2.668,2.175c-0.986,0.486-2.065,0.729-3.236,0.729  c-2.08,0-3.857-0.754-5.33-2.263s-2.209-3.344-2.209-5.505c0-2.117,0.744-3.927,2.229-5.432c1.486-1.504,3.274-2.256,5.364-2.256  c1.206,0,2.299,0.257,3.275,0.77c0.978,0.514,1.835,1.284,2.574,2.311v-8.376H250.6z M243.041,42.874  c-1.053,0-2.023,0.259-2.914,0.775c-0.891,0.518-1.6,1.244-2.126,2.18s-0.789,1.925-0.789,2.969c0,1.035,0.265,2.024,0.796,2.969  s1.244,1.68,2.139,2.206s1.855,0.79,2.881,0.79c1.035,0,2.016-0.261,2.942-0.783c0.927-0.521,1.64-1.228,2.139-2.118  s0.749-1.894,0.749-3.01c0-1.7-0.561-3.121-1.68-4.264C246.057,43.445,244.679,42.874,243.041,42.874z"
   id="path90" />
<path
   d="M254.997,41.428h1.932v2.148c0.577-0.847,1.185-1.479,1.824-1.898s1.306-0.628,1.999-0.628c0.522,0,1.081,0.167,1.676,0.5  l-0.986,1.594c-0.396-0.171-0.729-0.257-1-0.257c-0.631,0-1.238,0.26-1.824,0.777c-0.585,0.518-1.031,1.321-1.337,2.411  c-0.234,0.838-0.352,2.531-0.352,5.08v4.972h-1.932V41.428z"
   id="path92" />
<path
   d="M279.51,41.428v14.699h-1.863v-2.526c-0.793,0.964-1.683,1.688-2.669,2.175s-2.065,0.729-3.235,0.729  c-2.08,0-3.857-0.754-5.33-2.263s-2.209-3.344-2.209-5.505c0-2.117,0.743-3.927,2.229-5.432c1.485-1.504,3.274-2.256,5.363-2.256  c1.207,0,2.299,0.257,3.276,0.77c0.977,0.514,1.835,1.284,2.574,2.311v-2.702H279.51z M271.951,42.874  c-1.053,0-2.023,0.259-2.914,0.775c-0.891,0.518-1.6,1.244-2.126,2.18s-0.79,1.925-0.79,2.969c0,1.035,0.266,2.024,0.797,2.969  s1.244,1.68,2.139,2.206s1.855,0.79,2.881,0.79c1.035,0,2.016-0.261,2.942-0.783c0.927-0.521,1.64-1.228,2.139-2.118  s0.749-1.894,0.749-3.01c0-1.7-0.561-3.121-1.68-4.264C274.967,43.445,273.589,42.874,271.951,42.874z"
   id="path94" />
<path
   d="M299.268,35.754v20.373h-1.864v-2.526c-0.792,0.964-1.683,1.688-2.668,2.175c-0.986,0.486-2.065,0.729-3.235,0.729  c-2.081,0-3.857-0.754-5.33-2.263s-2.209-3.344-2.209-5.505c0-2.117,0.743-3.927,2.229-5.432c1.486-1.504,3.274-2.256,5.364-2.256  c1.206,0,2.299,0.257,3.276,0.77c0.977,0.514,1.834,1.284,2.573,2.311v-8.376H299.268z M291.709,42.874  c-1.053,0-2.024,0.259-2.915,0.775c-0.891,0.518-1.599,1.244-2.126,2.18c-0.525,0.936-0.789,1.925-0.789,2.969  c0,1.035,0.266,2.024,0.797,2.969c0.53,0.944,1.243,1.68,2.139,2.206c0.895,0.526,1.855,0.79,2.881,0.79  c1.035,0,2.016-0.261,2.941-0.783c0.927-0.521,1.64-1.228,2.139-2.118c0.5-0.891,0.75-1.894,0.75-3.01  c0-1.7-0.561-3.121-1.681-4.264S293.346,42.874,291.709,42.874z"
   id="path96" />
<path
   d="M316.756,51.25l1.594,0.838c-0.522,1.026-1.127,1.855-1.812,2.485c-0.686,0.631-1.456,1.11-2.313,1.438  c-0.856,0.329-1.825,0.493-2.907,0.493c-2.398,0-4.273-0.785-5.625-2.357c-1.353-1.571-2.029-3.348-2.029-5.329  c0-1.864,0.572-3.526,1.718-4.985c1.451-1.855,3.394-2.783,5.828-2.783c2.506,0,4.507,0.95,6.003,2.851  c1.064,1.342,1.605,3.018,1.623,5.025h-13.227c0.037,1.708,0.582,3.107,1.637,4.199c1.056,1.092,2.358,1.638,3.91,1.638  c0.748,0,1.477-0.13,2.184-0.391c0.708-0.26,1.311-0.605,1.807-1.036S316.179,52.21,316.756,51.25z M316.756,47.291  c-0.252-1.008-0.62-1.814-1.103-2.418c-0.483-0.604-1.12-1.09-1.914-1.459s-1.628-0.554-2.503-0.554  c-1.442,0-2.683,0.464-3.719,1.392c-0.758,0.675-1.331,1.688-1.719,3.039H316.756z"
   id="path98" />
</svg>